<svg xmlns="http://www.w3.org/2000/svg" viewBox="0 0 512 512">
  <rect width="512" height="512" rx="64" fill="#050508"/>
  <g transform="translate(60, 80) scale(0.75)">
    <path d="M216.51 25.6244C248.296 11.4724 274.064 28.2061 274.064 63V275C274.064 288.807 263.838 304.553 251.225 310.168L27.4064 409.819C12.2703 416.558 0 408.59 0 392.021V176.021C0 146.198 22.0864 112.187 49.3315 100.057L216.51 25.6244ZM36.5418 355.752C36.5418 361.274 40.6319 363.931 45.6773 361.684L232.041 278.71C235.068 277.362 237.522 273.583 237.522 270.269V76.2695C237.522 65.2238 229.342 59.9115 219.251 64.4042L62.1211 134.363C47.994 140.653 36.5418 158.288 36.5418 173.752V355.752Z" fill="white"/>
  </g>
</svg>
