<svg width="444" height="417" viewBox="0 0 444 417" fill="none" xmlns="http://www.w3.org/2000/svg">
<path d="M318.147 292.894C313.987 292.894 310.127 292.218 306.567 290.864C303.058 289.511 300 287.606 297.394 285.149C294.837 282.693 292.832 279.81 291.378 276.502C289.974 273.193 289.272 269.584 289.272 265.674C289.272 261.764 289.974 258.154 291.378 254.846C292.832 251.537 294.862 248.655 297.469 246.198C300.075 243.742 303.133 241.837 306.643 240.483C310.152 239.13 313.961 238.453 318.072 238.453C322.233 238.453 326.043 239.13 329.502 240.483C333.011 241.837 336.044 243.742 338.6 246.198C341.207 248.655 343.237 251.537 344.691 254.846C346.145 258.104 346.872 261.713 346.872 265.674C346.872 269.584 346.145 273.218 344.691 276.577C343.237 279.886 341.207 282.768 338.6 285.224C336.044 287.631 333.011 289.511 329.502 290.864C326.043 292.218 322.258 292.894 318.147 292.894ZM318.072 282.517C320.428 282.517 322.584 282.116 324.539 281.314C326.544 280.512 328.299 279.359 329.803 277.855C331.306 276.351 332.459 274.572 333.262 272.516C334.114 270.461 334.54 268.18 334.54 265.674C334.54 263.167 334.114 260.886 333.262 258.831C332.459 256.776 331.306 254.996 329.803 253.492C328.349 251.988 326.619 250.835 324.614 250.033C322.609 249.231 320.428 248.83 318.072 248.83C315.716 248.83 313.535 249.231 311.53 250.033C309.575 250.835 307.846 251.988 306.342 253.492C304.838 254.996 303.66 256.776 302.808 258.831C302.005 260.886 301.604 263.167 301.604 265.674C301.604 268.13 302.005 270.411 302.808 272.516C303.66 274.572 304.813 276.351 306.267 277.855C307.77 279.359 309.525 280.512 311.53 281.314C313.535 282.116 315.716 282.517 318.072 282.517Z" fill="white"/>
<path d="M261.495 291.992V249.281H244.652V239.355H290.521V249.281H273.677V291.992H261.495Z" fill="white"/>
<path d="M201.535 291.991V251.536H212.739V262.74L210.633 259.356C212.087 256.649 214.167 254.569 216.874 253.115C219.581 251.661 222.664 250.935 226.123 250.935C229.332 250.935 232.189 251.586 234.696 252.89C237.252 254.143 239.258 256.098 240.711 258.755C242.165 261.362 242.892 264.72 242.892 268.831V291.991H231.162V270.636C231.162 267.377 230.435 264.971 228.981 263.417C227.577 261.863 225.572 261.086 222.965 261.086C221.11 261.086 219.431 261.487 217.927 262.289C216.473 263.041 215.32 264.219 214.468 265.823C213.666 267.427 213.265 269.483 213.265 271.989V291.991H201.535Z" fill="white"/>
<path d="M177.934 292.593C173.322 292.593 169.261 291.69 165.752 289.886C162.293 288.081 159.611 285.625 157.706 282.516C155.801 279.358 154.849 275.774 154.849 271.764C154.849 267.703 155.776 264.119 157.631 261.011C159.536 257.853 162.118 255.396 165.376 253.642C168.635 251.837 172.319 250.935 176.43 250.935C180.39 250.935 183.949 251.787 187.108 253.491C190.316 255.145 192.847 257.552 194.702 260.71C196.557 263.818 197.484 267.553 197.484 271.914C197.484 272.365 197.459 272.892 197.409 273.493C197.359 274.045 197.309 274.571 197.259 275.072H164.399V268.229H191.093L186.581 270.26C186.581 268.154 186.155 266.324 185.303 264.77C184.451 263.216 183.273 262.013 181.769 261.161C180.265 260.259 178.51 259.808 176.505 259.808C174.5 259.808 172.72 260.259 171.166 261.161C169.662 262.013 168.484 263.241 167.632 264.846C166.78 266.4 166.354 268.254 166.354 270.41V272.215C166.354 274.42 166.83 276.376 167.782 278.08C168.785 279.734 170.164 281.013 171.918 281.915C173.723 282.767 175.828 283.193 178.235 283.193C180.39 283.193 182.27 282.867 183.874 282.216C185.528 281.564 187.032 280.586 188.386 279.283L194.627 286.051C192.772 288.156 190.441 289.785 187.634 290.938C184.827 292.041 181.593 292.593 177.934 292.593Z" fill="white"/>
<path d="M129.848 292.894C125.687 292.894 121.852 292.243 118.343 290.939C114.884 289.586 111.851 287.681 109.244 285.224C106.688 282.768 104.683 279.886 103.229 276.577C101.825 273.268 101.123 269.634 101.123 265.674C101.123 261.713 101.825 258.079 103.229 254.77C104.683 251.462 106.713 248.579 109.32 246.123C111.926 243.667 114.984 241.787 118.493 240.483C122.002 239.13 125.862 238.453 130.073 238.453C134.735 238.453 138.921 239.23 142.631 240.784C146.391 242.338 149.549 244.594 152.106 247.552L144.285 254.77C142.38 252.765 140.3 251.286 138.044 250.334C135.788 249.331 133.332 248.83 130.675 248.83C128.118 248.83 125.787 249.231 123.682 250.033C121.576 250.835 119.747 251.988 118.193 253.492C116.689 254.996 115.511 256.776 114.658 258.831C113.856 260.886 113.455 263.167 113.455 265.674C113.455 268.13 113.856 270.386 114.658 272.441C115.511 274.497 116.689 276.301 118.193 277.855C119.747 279.359 121.551 280.512 123.607 281.314C125.712 282.116 128.018 282.517 130.525 282.517C132.931 282.517 135.262 282.141 137.518 281.389C139.824 280.587 142.054 279.259 144.21 277.404L151.128 286.202C148.271 288.358 144.937 290.012 141.127 291.165C137.367 292.318 133.608 292.894 129.848 292.894ZM151.128 286.202L139.999 284.623V264.847H151.128V286.202Z" fill="white"/>
<path d="M266.655 111.466C275.433 107.558 282.548 112.179 282.548 121.787V180.329C282.548 184.142 279.725 188.49 276.242 190.04L214.436 217.558C210.256 219.419 206.868 217.219 206.868 212.643V152.997C206.868 144.761 212.967 135.37 220.49 132.02L266.655 111.466ZM216.959 202.628C216.959 204.153 218.088 204.886 219.481 204.266L270.944 181.353C271.78 180.981 272.458 179.938 272.458 179.023V125.451C272.458 122.401 270.199 120.934 267.412 122.175L224.022 141.493C220.121 143.23 216.959 148.1 216.959 152.37V202.628Z" fill="white"/>
<path d="M245.945 99.0381C254.722 95.1301 261.838 99.751 261.838 109.359V167.901C261.838 171.714 259.014 176.062 255.531 177.613L193.725 205.13C189.546 206.991 186.157 204.791 186.157 200.216V140.569C186.157 132.333 192.256 122.942 199.78 119.592L245.945 99.0381ZM196.248 190.2C196.248 191.725 197.377 192.459 198.771 191.838L250.233 168.926C251.069 168.553 251.747 167.51 251.747 166.595V113.023C251.747 109.973 249.488 108.506 246.702 109.747L203.311 129.065C199.41 130.802 196.248 135.672 196.248 139.942V190.2Z" fill="white"/>
<path d="M225.234 86.6123C234.011 82.7044 241.127 87.3252 241.127 96.9333V155.475C241.127 159.288 238.303 163.636 234.82 165.187L173.015 192.704C168.835 194.565 165.447 192.365 165.447 187.79V128.143C165.447 119.908 171.546 110.516 179.069 107.166L225.234 86.6123ZM175.537 177.774C175.537 179.299 176.667 180.033 178.06 179.412L229.523 156.5C230.359 156.128 231.036 155.084 231.036 154.169V100.598C231.036 97.5474 228.777 96.0804 225.991 97.321L182.601 116.64C178.7 118.376 175.537 123.246 175.537 127.516V177.774Z" fill="white"/>
<g clip-path="url(#clip0_81_15)">
<path d="M272.47 0.486481C269.591 1.04248 266.053 1.98073 265.81 2.22398C265.498 2.50198 267.753 6.18548 269.869 8.79173C276.251 16.8537 281.628 19.043 290.716 17.3055C292.381 16.9927 293.005 17.0622 294.532 17.5487L296.335 18.1742L294.774 18.765C291.687 19.9117 288.739 22.4832 286.241 26.1667L285.097 27.8L287.282 28.8425C292.797 31.414 299.561 32.1785 302.995 30.6147C303.967 30.1977 305.181 29.4332 305.701 28.912C306.672 27.9737 308.025 25.7497 308.025 25.02C308.025 24.3597 301.192 24.603 294.844 25.5412C293.907 25.6802 293.803 25.6455 294.358 25.4022C295.815 24.742 302.371 23.5952 305.597 23.4215L308.892 23.2477L313.575 25.5412L318.258 27.8695L316.177 28.4602C313.436 29.2247 310.453 31.2055 307.713 33.9855L305.528 36.279L306.325 36.9392C307.852 38.1902 313.367 40.6575 316.35 41.3872C320.131 42.3602 322.975 42.1517 325.508 40.727C327.45 39.615 329.809 36.6265 329.219 36.0357C329.011 35.8272 325.716 35.584 321.657 35.5145C312.847 35.2712 313.922 34.7847 323.634 34.5762L330.052 34.472L334.908 37.6342L339.729 40.8312L337.683 41.0745C335.151 41.3525 332.48 42.3602 330.017 43.9935C327.901 45.4182 325.126 47.816 325.369 48.0245C326.964 49.4492 330.676 51.9165 332.861 53.0632C337.856 55.6695 342.574 56.2255 345.765 54.5922C347.326 53.793 349.65 51.569 349.65 50.9087C349.65 50.179 340.735 48.3025 337.267 48.3025C336.469 48.3025 335.706 48.1287 335.602 47.955C335.185 47.2947 344.447 47.9202 348.332 48.8237C349.407 49.067 350.378 49.206 350.483 49.1017C350.656 48.928 359.12 55.9822 359.536 56.6077C359.64 56.8162 358.946 56.851 357.871 56.7467C356.726 56.6425 355.2 56.7815 353.813 57.129C351.315 57.7545 346.598 60.0132 344.967 61.3685L343.927 62.2372L346.459 64.6697C352.564 70.5772 358.877 73.1835 363.594 71.7935C365.537 71.2375 369.04 68.5965 368.485 68.11C367.618 67.3455 361.062 65.2257 355.547 63.9052C354.125 63.5925 353.292 63.2797 353.674 63.2797C355.304 63.2102 363.213 64.7392 366.057 65.7122C367.757 66.2682 369.248 66.6505 369.422 66.5462C369.699 66.3725 376.394 73.6352 377.678 75.4422C378.198 76.172 378.163 76.2067 377.539 75.9287C377.192 75.755 375.527 75.5812 373.897 75.477C371.573 75.3727 370.289 75.5117 368.243 76.0677C366.127 76.6585 361.791 78.5002 361.132 79.091C360.75 79.4385 365.19 84.5815 368.104 87.1182C373.723 92.018 379.689 93.0952 383.991 89.9677C385.239 89.0642 385.378 88.821 384.997 88.4387C384.164 87.6395 376.672 84.0255 373.411 82.844C369.491 81.4192 370.116 81.3497 374.764 82.705C378.753 83.8517 382.742 85.4502 384.927 86.736C385.898 87.292 386.419 87.431 386.419 87.153C386.419 86.8402 386.558 86.875 386.939 87.2225C387.563 87.848 394.397 98.0992 394.258 98.2382C394.223 98.273 393.495 97.995 392.663 97.5432C390.512 96.5007 385.413 96.2922 381.667 97.1262C378.475 97.8212 376.359 98.6205 376.359 99.107C376.359 99.663 378.718 103.485 380.799 106.231C385.725 112.868 391.691 115.613 396.894 113.667C399.427 112.694 399.808 112.208 398.802 111.304C397.311 109.914 391.414 106.057 388.153 104.285C386.349 103.312 384.962 102.512 385.101 102.512C385.448 102.512 390.512 104.736 393.009 105.987C394.258 106.613 396.513 107.968 398.004 109.011C400.051 110.401 400.814 110.783 401.022 110.435C401.265 110.053 405.289 117.907 407.162 122.39L407.543 123.328L405.913 122.285C403.312 120.617 400.988 120.061 396.652 120.096C392.697 120.096 388.847 120.722 388.847 121.347C388.847 121.521 389.437 123.119 390.2 124.892C392.836 131.216 396.964 136.429 400.883 138.34C403.103 139.417 406.538 139.626 408.931 138.826C409.902 138.514 410.7 138.131 410.7 137.958C410.7 137.297 402.653 130.069 398.559 127.081C398.074 126.733 398.629 126.942 399.773 127.567C402.653 129.062 406.884 132.154 409.694 134.761C411.186 136.151 412.088 136.776 412.088 136.429C412.088 135.282 412.677 135.942 413.232 137.68C413.753 139.243 416.528 148.139 417.187 150.294C417.325 150.815 417.013 150.641 415.903 149.634C413.961 147.861 410.735 146.402 407.439 145.776C404.387 145.186 398.698 145.081 398.386 145.603C398.074 146.089 399.427 151.371 400.641 154.499C402.826 159.989 405.636 163.707 409.035 165.584C410.7 166.522 411.186 166.626 414.065 166.626C415.938 166.626 417.429 166.453 417.638 166.244C418.193 165.688 413.475 159.503 409.07 155.055C405.878 151.823 405.913 151.614 409.139 154.221C411.22 155.854 416.597 161.414 417.88 163.186C419.233 165.063 419.719 165.445 419.719 164.576C419.719 164.298 419.858 163.985 420.031 163.881C420.343 163.673 422.841 178.546 422.841 180.596C422.841 180.7 422.32 180.005 421.696 179.102C419.164 175.349 413.614 172.812 405.948 171.874L404.109 171.63V173.229C404.109 177.885 406.156 186.225 408.133 189.596C409.937 192.689 413.059 195.226 415.868 195.816C417.083 196.094 420.759 196.129 421.002 195.851C421.453 195.434 415.66 185.635 412.781 181.847L410.665 179.136L413.44 182.021C416.319 185.009 419.719 189.735 421.696 193.384C422.32 194.531 422.841 195.295 422.841 195.087C422.841 194.913 423.083 194.426 423.361 194.044C423.812 193.453 423.847 194.426 423.847 202.593V211.801L422.841 209.821C421.072 206.38 417.291 203.288 412.504 201.342C409.902 200.299 406.191 199.326 405.913 199.639C405.774 199.778 405.67 202.801 405.67 206.346C405.67 213.574 406.052 215.589 407.994 219.585C409.972 223.686 413.267 226.118 417.291 226.466C418.435 226.57 419.372 226.57 419.372 226.466C419.372 225.041 415.903 216.284 413.475 211.697C412.538 209.96 411.879 208.5 411.949 208.5C412.226 208.5 415.73 214.095 417.221 216.84C418.401 219.029 420.031 222.991 420.933 225.701C421.106 226.327 421.21 226.257 421.869 225.25C422.251 224.624 422.633 224.138 422.667 224.207C422.771 224.311 422.633 225.423 421.765 231.435C421.592 232.86 421.002 236.231 420.517 238.906L419.615 243.771L419.025 241.617C417.95 237.69 415.209 234.389 410.423 231.261C409.07 230.427 407.023 229.281 405.844 228.759C403.277 227.647 403.381 227.578 402.34 231.956C401.3 236.265 401.057 243.91 401.82 247.177C402.514 250.165 403.693 252.459 405.393 254.162C406.884 255.691 410.388 257.498 411.81 257.498C412.92 257.498 412.92 258.088 411.567 251.034C411.116 248.497 410.11 244.605 409.347 242.347C408.619 240.053 408.029 238.177 408.098 238.107C408.133 238.072 408.758 239.323 409.486 240.887C411.324 244.918 413.024 250.096 413.683 253.606C414.481 257.949 414.412 257.845 415.626 256.455C416.319 255.621 416.597 255.447 416.458 255.934C415.105 260.695 412.747 267.784 410.839 272.788L409.833 275.394L409.625 272.753C409.313 268.791 407.856 266.116 403.936 262.154C400.883 259.096 396.686 255.934 396.131 256.281C395.715 256.559 393.183 263.127 392.246 266.359C391.622 268.652 391.483 270.008 391.448 274.004C391.448 278.73 391.483 278.938 392.524 281.128C393.113 282.379 394.258 284.047 395.056 284.846C396.582 286.34 399.878 288.182 400.433 287.834C400.953 287.487 400.363 275.116 399.635 270.876C399.253 268.791 399.01 267.019 399.045 266.95C399.184 266.811 400.537 271.815 401.161 274.803C401.612 276.819 402.202 282.483 402.479 286.827L402.548 288.182L403.693 287.244C404.283 286.722 404.803 286.375 404.803 286.479C404.803 287.417 394.501 306.356 394.154 306.043C394.119 305.974 394.223 305.314 394.432 304.549C394.987 302.638 394.64 298.329 393.738 296.07C392.663 293.186 390.061 289.468 386.974 286.34C385.448 284.811 384.129 283.56 384.025 283.56C383.609 283.56 380.348 288.946 378.718 292.248C376.359 297.147 375.527 300.31 375.492 304.584C375.492 307.781 375.596 308.267 376.568 310.318C377.678 312.646 379.898 315.183 381.597 316.086C382.118 316.364 382.638 316.434 382.742 316.295C383.401 315.183 384.823 303.924 385.066 297.46C385.135 296.07 385.17 296.14 385.378 298.155C385.76 301.352 385.76 308.684 385.413 311.36C385.239 312.611 384.997 314.488 384.823 315.53L384.58 317.407L385.413 316.885C385.864 316.573 386.696 316.051 387.286 315.669L388.327 315.009L387.182 316.573C383.817 321.299 373.515 333.948 373.064 333.948C372.995 333.948 373.272 333.218 373.654 332.314C374.66 330.056 374.903 325.503 374.139 322.48C373.827 321.229 372.891 318.797 372.023 317.094C370.463 313.932 367.271 309.275 366.682 309.275C366.127 309.275 360.819 315.495 358.808 318.484C352.945 327.345 352.425 334.99 357.351 340.376C358.287 341.419 359.189 342.288 359.363 342.288C360.16 342.288 364.011 330.056 365.086 324.218L365.537 321.611L365.572 323.488C365.641 327.38 363.976 335.824 362.172 340.654C361.617 342.114 361.305 343.33 361.478 343.33C361.652 343.33 362.588 343.017 363.594 342.635L365.363 341.975L364.011 343.365C360.854 346.666 345.279 359.836 346.008 358.585C346.181 358.307 346.667 357.612 347.083 357.022C350.968 351.879 350.552 343.33 346.008 334.295C344.551 331.411 344.967 331.341 339.972 335.338C333.798 340.307 329.67 345.519 328.144 350.245C326.722 354.763 327.554 359.975 330.294 363.277L331.127 364.284L332.896 361.539C335.255 357.821 338.897 350.454 340.284 346.527C340.909 344.755 341.464 343.365 341.533 343.434C341.776 343.643 339.348 351.809 338.238 354.624C336.85 358.064 334.769 362.269 333.555 364.041C332.723 365.257 332.688 365.396 333.243 365.501C333.59 365.535 334.7 365.362 335.706 365.118C336.677 364.84 337.509 364.701 337.509 364.771C337.509 365.431 315.24 378.428 314.095 378.428C313.957 378.428 314.616 377.733 315.518 376.899C317.668 374.953 319.298 372.277 320.027 369.393C320.859 366.091 320.547 358.898 319.368 354.52C318.882 352.713 318.362 351.114 318.223 350.975C317.772 350.558 311.702 353.651 307.748 356.327C300.012 361.47 296.162 367.03 296.127 373.041C296.093 375.543 296.89 378.706 297.827 379.991C298.347 380.652 298.451 380.582 300.845 378.045C304.036 374.675 308.233 369.219 310.453 365.535C312.812 361.574 312.916 361.4 312.534 362.582C311.008 366.925 304.764 376.899 301.4 380.339C300.463 381.312 299.7 382.215 299.7 382.32C299.7 382.459 300.845 382.598 302.232 382.667L304.73 382.771L301.608 384.057C295.225 386.733 288.045 389.131 278.367 391.876C277.986 391.98 278.853 391.285 280.275 390.312C281.732 389.339 283.466 387.81 284.229 386.802C285.86 384.613 287.351 380.791 287.906 377.385C288.323 374.779 288.288 365.118 287.872 364.701C287.559 364.423 282.842 365.64 278.992 366.995C269.314 370.4 263.139 375.543 261.37 381.694C260.711 383.988 260.781 388.818 261.509 390.173C261.891 390.903 261.96 390.868 264.423 389.131C269.175 385.725 274.448 381.034 278.541 376.516C280.726 374.084 280.726 374.084 279.373 375.995C275.349 381.764 269.071 388.366 265.117 391.042C263.937 391.841 262.931 392.606 262.931 392.71C262.931 392.953 264.874 393.509 267.475 393.996C268.62 394.204 269.799 394.169 271.395 393.822C276.494 392.779 284.958 390.451 291.202 388.331C294.844 387.115 297.48 386.351 297.098 386.629C293.768 388.992 292.103 390.59 292.936 390.59C295.538 390.59 317.98 393.857 318.397 394.274C318.501 394.378 317.668 394.378 316.523 394.274C314.373 394.03 294.532 392.675 293.213 392.675C292.52 392.675 292.485 392.745 292.901 394.308C293.526 396.671 294.323 398.096 296.093 399.973C300.359 404.56 308.511 405.324 318.293 402.127C322.871 400.598 325.473 399.417 329.809 396.741L332.688 395.003L330.849 393.127C326.444 388.609 319.888 384.509 315.101 383.293C311.979 382.493 309.759 382.424 306.638 383.084C305.389 383.362 304.348 383.536 304.279 383.466C304.244 383.432 305.077 383.015 306.187 382.598C310.002 381.069 320.721 375.752 325.716 372.868C328.491 371.304 330.919 369.914 331.092 369.81C331.3 369.705 330.711 370.4 329.843 371.339C328.942 372.312 328.04 373.424 327.832 373.875C327.415 374.64 327.415 374.64 328.907 374.466C331.925 374.049 339.938 373.597 346.528 373.424L353.292 373.25L340.631 374.918C333.659 375.856 327.936 376.621 327.866 376.655C327.832 376.655 328.178 377.489 328.664 378.428C329.843 380.791 331.959 382.806 334.353 383.953C336.122 384.787 336.677 384.856 340.458 384.856C344.204 384.822 344.933 384.717 347.742 383.744C351.176 382.563 355.616 380.2 358.842 377.906C361.513 375.995 366.3 371.825 366.3 371.408C366.3 370.956 362.346 368.489 358.842 366.821C354.437 364.667 351.454 363.833 347.395 363.589C344.308 363.416 343.649 363.485 341.325 364.284C339.903 364.771 338.689 365.118 338.619 365.049C338.55 365.014 339.972 363.937 341.776 362.686C346.008 359.697 353.604 353.79 357.108 350.697C358.634 349.377 359.918 348.299 359.952 348.334C360.022 348.404 359.571 349.307 358.981 350.419C358.391 351.496 357.975 352.504 358.079 352.608C358.183 352.713 360.438 352.191 363.039 351.496C368.347 350.037 381.285 347.118 381.493 347.326C381.563 347.396 381.25 347.535 380.799 347.674C380.348 347.813 375.631 349.307 370.289 350.975C364.947 352.678 360.16 354.172 359.64 354.311C359.085 354.415 358.669 354.659 358.669 354.798C358.669 354.937 359.154 355.701 359.709 356.5C360.993 358.273 363.386 359.836 365.918 360.601C373.48 362.79 385.135 355.979 393.287 344.581L394.466 342.983L392.593 342.149C387.772 339.994 382.395 338.813 377.608 338.813C373.55 338.813 371.156 339.369 368.589 340.967L366.855 342.01L368.624 339.994C369.595 338.847 370.913 337.457 371.503 336.901C372.995 335.511 378.822 328.909 381.667 325.33C383.748 322.758 384.546 322.167 383.678 323.801C383.54 324.113 383.297 324.982 383.158 325.677L382.915 326.963L387.91 324.565C392.593 322.306 404.526 317.233 405.081 317.268C405.219 317.302 404.248 317.858 402.895 318.519C401.577 319.214 396.756 321.716 392.212 324.148L383.956 328.492L385.066 329.639C385.656 330.229 386.939 331.202 387.91 331.724C389.541 332.627 390.026 332.731 392.836 332.731C396.305 332.697 398.143 332.106 401.681 329.812C404.595 327.936 408.931 323.384 411.463 319.526C413.891 315.843 416.181 311.499 415.834 311.186C415.73 311.082 414.516 310.735 413.093 310.422C411.186 309.97 408.931 309.831 404.456 309.831C397.033 309.831 395.854 310.144 390.963 313.688C390.373 314.14 390.755 313.376 392.212 311.186C394.709 307.468 400.19 298.364 401.473 295.792C401.959 294.819 402.479 293.985 402.583 293.985C402.687 293.985 402.653 294.889 402.514 295.966C402.306 297.669 402.34 297.912 402.757 297.599C406.815 294.402 421.8 284.533 421.8 285.054C421.8 285.124 421.072 285.715 420.17 286.375C418.782 287.348 408.133 295.618 404.63 298.433C403.693 299.198 403.658 299.232 404.318 299.719C405.74 300.796 408.168 301.734 410.041 301.873C415.313 302.36 420.725 298.85 425.13 292.074C427.593 288.286 428.46 286.41 430.125 281.614C431.2 278.452 431.443 277.479 431.096 277.236C430.437 276.749 421.314 277.201 418.505 277.826C415.036 278.591 411.359 280.433 409.104 282.587L407.127 284.429L408.029 282.691C409.035 280.641 413.718 268.826 414.897 265.316L415.73 262.884L415.834 264.274C415.868 265.038 416.007 265.872 416.111 266.15C416.215 266.498 417.95 265.038 421.384 261.633C424.193 258.853 427.974 255.274 429.778 253.64C433.524 250.304 433.733 250.061 424.575 260.069C422.008 262.919 419.372 265.803 418.782 266.533L417.638 267.853L418.956 268.479C420.551 269.243 424.748 269.521 426.448 268.965C429.813 267.853 433.073 264.76 435.64 260.208C437.791 256.386 439.872 249.505 440.393 244.501L440.635 242.173L439.109 242.416C432.9 243.285 428.287 244.64 424.991 246.621C422.979 247.802 420.759 249.887 419.337 251.972C418.886 252.633 418.956 252.077 419.615 249.505C420.1 247.698 421.176 242.903 421.973 238.906C423.257 232.617 423.5 231.783 423.708 232.929C423.847 233.624 424.089 234.285 424.228 234.389C424.367 234.458 425.373 233.173 426.518 231.505C427.628 229.837 430.333 226.223 432.518 223.443C438.415 215.902 438.728 215.693 434.253 222.435C428.252 231.435 425.928 235.362 426.309 235.744C426.518 235.953 427.974 236.126 429.709 236.126C432.31 236.126 432.969 235.987 434.496 235.188C439.178 232.721 442.543 226.188 443.618 217.361C444.035 213.991 444.104 209.473 443.792 208.257C443.584 207.527 443.549 207.527 441.815 208.048C434.045 210.307 427.662 214.547 425.616 218.717C425.199 219.62 424.818 220.315 424.748 220.246C424.714 220.176 424.818 218.89 424.957 217.361C425.095 215.832 425.338 211.384 425.477 207.458C425.72 200.751 425.754 200.438 426.24 201.481C426.552 202.106 426.864 202.593 426.968 202.558C427.073 202.558 428.217 200.403 429.501 197.797C431.929 192.863 436.785 184.106 436.993 184.314C437.063 184.384 436.646 185.357 436.091 186.469C434.53 189.561 428.738 202.871 428.738 203.322C428.738 203.6 429.501 203.67 431.27 203.566C438.277 203.114 442.266 197.311 442.855 186.747C443.063 182.889 442.3 175.627 441.572 174.445C441.329 174.028 440.878 174.132 439.074 174.966C432.38 178.163 427.385 182.82 425.858 187.337L425.338 188.866L425.095 186.086C424.714 181.465 423.881 174.028 423.534 172.047C423.153 169.893 423.222 169.58 423.881 170.796C424.124 171.283 424.436 171.665 424.54 171.665C424.644 171.665 425.581 169.128 426.587 166.001C428.356 160.649 431.443 152.414 431.478 153.004C431.513 153.143 431.027 154.846 430.472 156.827C428.009 165.167 426.379 172.047 426.795 172.221C427.419 172.464 430.333 171.735 431.825 170.97C434.426 169.65 436.681 166.14 437.409 162.283C437.895 159.642 437.826 155.194 437.236 151.719C436.716 148.661 434.773 142.128 434.392 142.128C433.386 142.128 427.489 146.993 425.165 149.703C423.292 151.892 421.453 155.472 421.453 156.862C421.453 158.634 420.898 157.73 420.274 154.881C419.719 152.448 417.672 144.942 416.77 142.128C416.493 141.259 416.528 141.259 417.221 141.884C417.915 142.51 417.915 142.51 418.123 141.884C418.193 141.537 418.401 140.321 418.505 139.174C418.713 137.506 419.996 130.625 421.349 124.301C421.869 121.868 421.696 124.127 420.933 130.347C420.482 134.031 419.996 138.305 419.892 139.765C419.649 142.475 419.649 142.475 420.482 142.475C421.835 142.475 424.818 140.772 426.136 139.278C428.044 137.019 428.564 135.004 428.529 130.139C428.495 126.699 428.321 125.448 427.558 122.841C426.622 119.714 423.361 112.59 422.875 112.59C422.702 112.59 421.314 113.91 419.753 115.544C415.591 119.887 413.648 123.189 412.781 127.359L412.365 129.374L410.735 125.413C409.833 123.224 408.376 119.922 407.474 118.011C406.572 116.134 405.844 114.501 405.844 114.397C405.844 114.293 406.121 114.466 406.503 114.814C407.093 115.37 407.127 115.161 407.37 108.35C407.821 96.605 408.098 95.632 408.376 104.771C408.515 109.15 408.723 113.354 408.827 114.049L409.035 115.37L410.249 114.849C412.33 113.98 414.099 112.312 415.105 110.262C415.938 108.524 416.042 107.864 416.042 105.119C416.077 101.47 415.209 98.3425 413.128 94.0682C411.671 91.184 408.376 86.18 407.89 86.18C407.231 86.18 404.005 90.767 402.34 94.103C400.71 97.3 400.502 97.995 400.328 100.601L400.12 103.52L397.762 99.5587C396.478 97.3695 394.64 94.4157 393.668 92.9562C392.385 90.9755 392.108 90.35 392.593 90.489C393.218 90.6975 393.218 90.5932 392.975 88.8905C392.42 85.485 391.622 77.1797 391.657 75.338L391.691 73.4962L392.003 75.4075C392.94 81.2802 394.536 89.8635 394.744 90.1067C395.472 90.9407 398.872 87.8827 399.878 85.5197C401.3 82.149 400.155 76.5195 397.033 71.3765C395.299 68.527 390.512 62.55 389.957 62.55C389.471 62.55 386.8 67.5192 385.69 70.5425C384.754 73.0097 384.58 74.0175 384.546 76.6932C384.511 79.0215 384.407 79.786 384.129 79.4732C383.921 79.23 382.395 77.423 380.765 75.4075C379.134 73.392 377.192 71.0985 376.533 70.2645C375.839 69.4652 375.492 68.9092 375.804 69.0135C376.533 69.2915 376.498 69.2567 375.492 65.886C374.452 62.411 372.474 53.5497 372.648 53.0632C372.717 52.8547 373.029 53.6887 373.376 54.9397C374.486 58.8665 377.469 67.9362 377.747 68.249C378.233 68.7355 380.106 67.137 381.112 65.3995C381.979 63.9747 382.083 63.4187 382.083 60.8125C382.083 58.2062 381.944 57.5807 380.973 55.5305C379.516 52.4377 378.128 50.457 375.388 47.5727C373.203 45.2097 370.185 42.7425 369.526 42.7425C369.006 42.7425 367.098 47.9897 366.439 51.152C365.884 53.932 365.918 57.6155 366.508 59.2487C366.647 59.631 365.363 58.6232 363.664 56.99C361.964 55.3567 359.675 53.2717 358.565 52.3335C357.489 51.3605 356.761 50.4917 356.934 50.3875C357.143 50.2485 356.865 49.2407 356.206 47.7465C354.888 44.8275 351.315 35.0627 351.488 34.8542C351.558 34.7847 351.974 35.5492 352.39 36.557C353.847 40.1362 358.495 49.6577 358.773 49.6925C359.189 49.6925 360.715 47.955 361.374 46.7387C361.756 46.0437 361.964 44.8275 361.964 43.09C361.964 39.3717 360.542 36.6612 356.588 32.6302C353.813 29.8155 348.748 26.0625 347.708 26.0625C347.153 26.0625 346.32 28.7382 345.8 32.1437C345.349 34.9237 345.557 39.8235 346.147 40.9702C346.389 41.3872 346.528 41.8737 346.459 42.0127C346.32 42.395 336.712 35.5492 336.608 34.9932C336.573 34.75 336.018 33.7075 335.359 32.665C333.867 30.302 329.08 21.1975 329.254 21.0237C329.323 20.9542 330.052 22.0315 330.884 23.3867C332.445 25.9235 337.475 33.777 337.718 34.0202C337.96 34.2982 338.966 33.1862 339.66 31.831C342.504 26.3057 337.405 18.7997 327.589 14.039C325.785 13.1355 324.224 12.4752 324.155 12.5795C323.843 12.8575 323.288 17.3402 323.288 19.46C323.288 22.0662 324.016 25.8887 324.814 27.4177C325.369 28.4255 325.23 28.3907 320.166 25.7845C317.321 24.325 314.963 22.9697 314.963 22.8307C314.963 22.6917 314.13 21.5102 313.089 20.2245C311.528 18.2785 307.366 12.3362 306.499 10.842C305.874 9.76473 306.742 10.6335 308.58 12.927C309.69 14.317 311.841 16.9232 313.367 18.7302L316.142 21.9967L316.974 20.294C317.633 18.8692 317.738 18.1742 317.633 16.2282C317.495 14.178 317.321 13.622 316.142 11.9192C315.413 10.842 313.922 9.27823 312.881 8.40948C310.106 6.18548 302.753 2.77998 300.741 2.77998C300.116 2.77998 300.047 3.02323 300.047 5.80323C300.047 9.62573 300.775 13.1702 302.093 15.707L303.099 17.6877L301.296 16.958C300.324 16.5757 296.821 15.2552 293.491 14.039C290.196 12.8227 284.958 10.564 281.871 9.03498C275.766 5.97698 275.766 5.94223 281.663 8.23573C283.848 9.06973 286.9 10.2165 288.427 10.7725C289.953 11.2937 292.277 12.1625 293.595 12.6837L295.988 13.5872L295.815 11.7455C295.642 9.38248 294.254 6.35923 292.624 4.76073C291.202 3.30123 288.323 1.73748 285.478 0.868731C282.877 0.0694806 275.662 -0.139019 272.47 0.486481ZM384.927 295.445C384.823 295.723 384.719 295.618 384.719 295.236C384.684 294.854 384.788 294.645 384.893 294.784C384.997 294.889 385.031 295.201 384.927 295.445Z" fill="white"/>
<path d="M146.208 1.52912C144.3 2.15462 141.941 3.05812 141.005 3.54462C138.056 5.03887 134.934 7.64512 133.616 9.66062C132.402 11.4676 132.333 11.7456 132.333 14.4214C132.333 16.6106 132.472 17.4446 132.992 18.2439L133.651 19.2516L136.044 16.6801C137.362 15.2554 139.548 12.7534 140.901 11.1201C144.439 6.91537 144.682 6.74162 142.392 10.0776C140.38 13.0314 135.94 18.7304 134.726 19.9119C133.755 20.8849 124.493 25.2981 124.736 24.6726C126.332 21.0586 126.887 17.0971 126.436 12.3711C126.193 9.66062 126.193 9.66062 125.291 9.86912C123.383 10.2861 117.278 13.6221 115.093 15.4291C109.821 19.8076 108.086 24.3946 110.098 28.7036C110.549 29.6766 111.069 30.5801 111.277 30.7191C111.555 30.8929 115.024 26.1321 119.464 19.4601C120.157 18.4176 120.712 17.6531 120.712 17.7574C120.712 18.1744 116.723 25.2981 114.607 28.6689L112.422 32.1439L107.635 35.3061L102.814 38.4336L103.438 36.6961C104.132 34.6806 104.271 29.6766 103.716 26.7576C103.126 23.5954 102.675 22.2401 102.224 22.2401C101.53 22.2401 96.4312 25.5066 94.4193 27.2441C92.0259 29.2944 89.8406 31.9006 88.5918 34.1594C87.6899 35.7579 87.5859 36.3139 87.5859 38.9549C87.5859 41.6654 87.6899 42.0824 88.6265 43.6461C89.2162 44.5844 89.9446 45.3836 90.2221 45.4531C90.569 45.5226 91.8524 43.3334 94.454 38.1904C96.5006 34.1246 98.1656 30.9276 98.1656 31.0666C98.1656 31.5531 94.2459 41.2136 93.2053 43.2639C92.6503 44.4106 92.0606 45.6964 91.9565 46.1134C91.7831 46.7389 85.5393 52.4726 83.1459 54.2101C82.4868 54.6966 82.4521 54.6966 82.6603 54.0711C83.6315 51.5691 83.1806 46.3914 81.6196 41.6654C80.2668 37.4954 80.3362 37.5301 77.6999 39.5456C72.7049 43.3681 68.5771 48.6154 67.2937 52.7506C66.4612 55.4264 66.4265 56.6426 67.1203 58.9361C67.6059 60.6041 69.8953 63.5926 70.6584 63.5926C71.0053 63.5926 74.4046 54.5229 75.8268 49.9011C76.1737 48.7891 76.5206 48.0246 76.5899 48.2331C76.7287 48.7196 74.4393 57.6851 73.2253 61.2296C72.6703 62.9324 72.3581 64.2876 72.5315 64.2876C72.7396 64.2876 71.5949 65.7471 69.9993 67.5194C68.4037 69.2569 66.4265 71.5504 65.5593 72.5581L63.9637 74.4346L64.1024 72.0021C64.2065 70.2994 64.0331 68.7356 63.5128 66.6854C62.7149 63.4884 59.8012 57.3376 59.1074 57.3376C58.8993 57.3376 57.5812 58.5539 56.1937 60.0134C48.1809 68.6314 45.7874 77.2494 50.0193 82.3576C50.7824 83.2959 53.0718 84.8944 53.3146 84.6511C53.5574 84.4079 56.3671 71.5851 56.714 69.1179C56.8528 68.1449 57.0262 67.4499 57.1303 67.5541C57.3731 67.7626 56.3324 76.6934 55.5346 81.3151C55.1878 83.4001 55.049 85.0681 55.2224 85.1724C55.3959 85.2766 54.3553 87.0489 52.8984 89.1339C51.4762 91.1841 49.7418 93.7904 49.0481 94.9024C48.389 96.0491 47.7993 96.9526 47.7646 96.9526C47.7299 96.9526 47.6606 95.9449 47.6259 94.6939C47.4871 90.8714 44.8509 84.8596 41.6249 81.0024C40.619 79.8209 40.5843 79.8209 39.9253 80.4116C38.6071 81.5931 35.6934 86.1801 34.1671 89.4119C30.7678 96.5704 30.6984 102.339 33.959 106.057C35.2078 107.482 37.9134 109.115 38.3296 108.698C38.6071 108.42 39.1621 102.061 39.4049 96.1881C39.7865 88.0219 40.3068 91.1494 40.1681 100.81C40.0987 107.273 40.1681 108.976 40.4803 108.872C40.7231 108.768 40.9312 108.768 40.9312 108.872C40.9312 109.011 39.7865 111.409 38.399 114.223C37.0115 117.038 35.5546 120.061 35.2078 120.93L34.5834 122.494L34.3059 120.861C33.8549 117.942 32.9184 115.718 30.8718 112.625C29.0334 109.914 24.8362 105.293 24.524 105.675C24.0384 106.266 21.8184 110.227 21.3328 111.374C16.3378 123.119 17.3784 131.807 24.0731 134.865C26.189 135.838 26.9521 135.734 26.8481 134.552C26.5012 131.494 25.634 118.081 25.7381 117.942C26.0156 117.664 28.4437 133.232 28.4437 135.317C28.4437 135.525 28.6171 135.49 28.8599 135.247C29.7618 134.344 29.6578 134.969 28.4437 138.548C27.7499 140.633 26.6399 144.143 26.0156 146.367L24.8362 150.468L24.3853 148.73C23.2406 144.213 19.7371 139.799 13.7362 135.351C12.4528 134.378 12.3834 134.344 11.9324 135.004C11.204 135.977 9.12275 142.649 8.7065 145.29C8.08213 149.043 8.22088 154.255 9.01869 156.792C10.2328 160.754 12.6956 163.464 15.9215 164.368C17.2396 164.75 19.0781 164.819 19.0781 164.541C19.0781 164.229 15.2971 147.931 14.9156 146.68C14.7421 146.02 14.6381 145.394 14.7074 145.325C14.9503 145.116 19.2168 158.495 19.9799 161.657C20.6043 164.368 20.8818 164.854 21.2981 163.812C21.8878 162.283 21.7837 164.055 21.0206 168.92C20.5349 171.874 20.0493 175.349 19.9106 176.704C19.6678 179.171 19.1474 181.221 19.1128 179.866C19.0434 177.712 15.1584 172.812 11.2387 169.893C9.15744 168.364 4.23181 165.584 3.989 165.827C3.7115 166.105 2.77494 170.101 2.42806 172.534C0.901812 183.306 3.88494 192.411 9.74713 194.913C11.4468 195.643 14.9849 196.06 15.4359 195.573C15.5746 195.434 14.0137 191.229 12.0365 186.191C10.0246 181.152 8.429 177.017 8.49838 176.947C8.67181 176.773 14.6728 188.901 15.9909 192.063C16.6499 193.662 17.2743 194.948 17.3784 194.948C17.4824 194.948 17.7599 194.6 17.9681 194.148C18.2456 193.558 18.3496 194.913 18.3496 199.813C18.3843 203.357 18.4884 207.562 18.5578 209.195L18.7659 212.149L18.0028 210.585C17.5518 209.716 16.0949 207.909 14.7421 206.554C12.7303 204.539 11.4815 203.705 8.39431 202.141C4.23181 200.056 0.867125 198.84 0.450875 199.257C0.277437 199.396 0.173375 202.21 0.208062 205.477C0.24275 212.496 0.901812 215.902 3.12181 220.558C5.3765 225.18 8.56775 227.786 12.5568 228.203C14.4993 228.377 16.6846 227.995 16.8928 227.404C16.9621 227.23 14.6034 223.06 11.6549 218.126C8.74119 213.226 6.38244 209.195 6.41713 209.195C6.69463 209.195 13.8403 219.168 16.0603 222.643C17.4478 224.798 18.6618 226.57 18.8006 226.57C18.9393 226.57 19.1821 226.049 19.3556 225.423L19.6678 224.311L19.8759 225.354C20.0146 225.91 20.3615 228.273 20.639 230.566C20.9512 232.86 21.6103 236.682 22.0612 239.045C22.5468 241.374 22.859 243.389 22.7896 243.459C22.7203 243.528 22.2346 242.972 21.6796 242.242C19.0434 238.385 11.5509 234.841 3.7115 233.729C1.769 233.416 1.80369 233.207 2.63619 238.698C3.32994 243.459 3.95431 245.891 5.41119 249.47C9.22681 258.644 15.4012 262.884 21.9918 260.799C23.0671 260.451 23.9343 260.104 23.9343 259.965C23.9343 259.756 15.2624 249.262 11.6896 245.161L9.539 242.729L11.7937 244.675C13.0424 245.752 16.6153 249.366 19.7718 252.702L25.4953 258.783L25.8074 257.428C26.1196 256.108 26.1543 256.212 28.2703 262.606C29.4496 266.185 31.0106 270.598 31.7043 272.371C32.3981 274.178 32.9531 275.672 32.9531 275.741C32.9531 275.811 32.1899 275.116 31.2881 274.212C29.3456 272.266 26.1196 270.633 22.304 269.625C19.3903 268.896 12.6609 268.235 10.8571 268.513C9.8165 268.687 9.74713 268.791 9.92056 269.625C13.3199 283.873 21.3328 294.02 29.2415 294.089C30.4209 294.089 32.1899 293.846 33.1265 293.533C34.8262 292.943 36.7687 291.726 36.4218 291.483C36.3178 291.379 33.5081 289.016 30.1781 286.166C26.8481 283.317 23.1712 280.224 22.0265 279.251C20.8818 278.313 19.7024 277.305 19.4249 277.027C17.9681 275.602 30.6984 284.603 34.6528 287.834L37.6359 290.197L37.8093 288.564L37.9828 286.931L38.7806 288.634C40.064 291.309 44.6774 299.754 46.724 303.124C47.7299 304.792 48.5624 306.252 48.5624 306.356C48.5624 306.46 47.9728 306.043 47.2443 305.487C43.8449 302.742 38.6765 301.456 32.2246 301.769C30.0046 301.839 27.1603 302.117 25.8768 302.36C23.1712 302.812 23.2059 302.603 25.3912 307.086C29.8659 316.295 36.9074 323.453 43.1165 325.121C46.9668 326.129 50.6784 325.33 53.4534 322.897L54.9103 321.577L48.1809 317.615C44.4693 315.461 39.9253 312.82 38.0868 311.742C36.2137 310.7 34.7568 309.796 34.8262 309.727C35.0343 309.518 48.2849 315.843 52.0312 317.928C55.2571 319.7 55.6734 319.874 55.7774 319.283C55.8468 318.901 55.7428 318.136 55.5346 317.546C55.3265 316.955 55.1878 316.399 55.2571 316.364C55.2918 316.295 56.8528 318.241 58.6912 320.673C61.4315 324.322 65.9062 329.743 69.8606 334.26C70.5196 334.99 70.3809 334.955 68.6118 333.948C67.5018 333.357 65.8021 332.627 64.7962 332.349C62.3334 331.724 56.9568 331.724 53.384 332.419C50.1928 333.009 44.1918 334.851 43.9143 335.303C43.6021 335.789 47.6259 341.315 50.5743 344.442C60.3909 354.763 70.6584 357.369 76.9021 351.114C77.9081 350.106 78.7406 349.133 78.7406 348.925C78.7406 348.751 78.0815 348.369 77.249 348.056C76.4512 347.778 73.0518 346.527 69.7218 345.276C66.3918 344.06 61.9518 342.392 59.8359 341.627C57.7546 340.863 56.159 340.237 56.3324 340.203C56.9915 340.203 69.8259 343.747 74.5087 345.241C77.249 346.145 79.5731 346.805 79.6424 346.736C79.7118 346.666 79.3649 345.763 78.914 344.755C78.4284 343.747 78.0468 342.809 78.0468 342.705C78.0468 342.566 79.3303 343.747 80.9259 345.276C84.2906 348.577 89.8406 353.373 94.0725 356.674C97.6453 359.454 98.0268 359.871 96.015 358.968C92.0606 357.23 86.9615 357.369 81.0993 359.315C78.1509 360.323 72.9824 362.755 70.9706 364.111L69.9993 364.806L72.7049 367.516C79.0528 373.771 86.129 377.941 92.8584 379.331C98.0268 380.408 102.606 379.192 105.623 375.96C107.08 374.397 108.537 371.999 108.19 371.721C108.121 371.651 103.126 370.783 97.125 369.74C84.8109 367.69 83.3193 367.412 84.6374 367.342C86.7881 367.273 104.583 369.01 107.635 369.601C108.884 369.844 108.815 369.497 107.323 367.308C106.629 366.3 106.282 365.605 106.56 365.779C106.803 365.918 108.294 366.891 109.89 367.898C114.226 370.678 121.337 374.744 125.985 377.072C128.24 378.184 130.078 379.192 130.078 379.262C130.078 379.331 129.176 379.157 128.101 378.914C123.21 377.767 117.972 378.914 111.624 382.563C108.502 384.335 102.848 388.853 102.848 389.548C102.848 390.208 107.913 393.613 111.694 395.49C118.076 398.652 123.002 399.973 128.517 399.973C133.582 399.973 137.675 398.305 139.929 395.351C140.97 393.996 142.566 390.66 142.566 389.826C142.566 389.2 142.843 389.2 122.308 389.687C118.909 389.791 116.203 389.791 116.272 389.721C116.55 389.443 133.165 387.775 137.813 387.567C140.415 387.463 142.566 387.254 142.566 387.115C142.566 386.941 141.664 386.003 140.519 384.961L138.507 383.049L141.837 384.405C145.341 385.864 148.705 386.351 151.897 385.899L153.423 385.656L151.133 383.362C147.769 379.922 143.363 373.806 141.039 369.323C139.895 367.169 139.062 365.466 139.201 365.57C139.305 365.674 140.311 367.169 141.456 368.906C143.745 372.381 148.462 378.011 152.174 381.659L154.602 384.022L155.435 382.181C156.128 380.652 156.267 379.783 156.267 376.864C156.267 373.702 156.163 373.18 155.192 371.13C153.7 368.003 151.688 365.57 148.393 362.964C145.306 360.531 139.166 357.056 135.559 355.701L133.235 354.798L132.853 356.222C131.466 361.331 131.084 367.481 131.847 371.686C132.576 375.682 134.622 378.914 138.23 381.833L139.617 382.945L137.709 382.181C131.951 379.852 111.382 368.837 114.122 369.532C115.579 369.914 118.978 370.192 118.978 369.949C118.978 369.81 118.354 368.802 117.625 367.69C114.989 363.833 111.971 357.23 110.237 351.74C109.439 349.099 109.612 348.508 110.48 350.871C112.214 355.632 119.984 368.871 120.851 368.593C121.059 368.524 121.857 367.273 122.62 365.779C123.904 363.277 123.973 362.929 123.973 360.08C123.973 355.423 122.412 351.983 118.146 347.048C115.128 343.573 106.699 337.145 105.693 337.527C105.103 337.735 103.334 342.114 102.259 345.936C101.669 348.056 101.496 349.655 101.496 352.713C101.496 357.543 102.12 359.419 104.791 362.755C105.762 363.972 106.352 364.84 106.074 364.667C103.057 362.86 90.5343 353.06 86.3718 349.272L84.464 347.5L86.0249 348.16C87.6899 348.855 89.4937 349.342 89.4937 349.099C89.4937 349.029 89.1121 348.126 88.6612 347.048C86.684 342.566 84.5681 334.087 84.1518 328.909L83.9784 326.476L84.7762 330.125C85.9209 335.199 88.8346 343.504 90.7771 347.292L91.2974 348.265L92.4421 347.153C93.6909 345.936 95.4946 342.774 95.8762 341.106C96.3271 339.299 96.1537 335.338 95.564 333.322C94.2459 328.839 90.7078 323.453 85.5393 318.171L82.5215 315.078L81.3074 316.781C79.3996 319.422 77.7693 322.48 76.5899 325.677C75.584 328.249 75.4799 328.978 75.4799 332.419C75.4453 336.137 75.4799 336.311 76.694 338.778L77.9428 341.28L75.8962 339.264C71.3174 334.782 60.2868 321.785 61.0153 321.785C61.2234 321.785 61.4662 321.959 61.5703 322.133C61.8478 322.584 64.5187 323.974 64.7268 323.766C64.7962 323.696 64.5534 322.098 64.1371 320.187C63.5474 317.476 63.374 315.217 63.2699 309.623C63.2006 305.314 63.2699 302.846 63.4434 303.368C63.6168 303.854 63.7903 305.175 63.7903 306.321C63.8596 310.144 66.0103 322.341 66.7387 323.071C66.9468 323.314 68.9934 321.785 70.2768 320.465C70.7624 319.943 71.6643 318.519 72.2887 317.268C73.2946 315.148 73.364 314.766 73.3293 311.36C73.3293 308.337 73.1559 307.225 72.3928 305.001C71.1093 301.283 69.5137 298.225 66.5653 293.811L64.0678 290.058L61.6743 292.56C55.1184 299.441 52.5862 306.599 54.6674 312.472C54.9103 313.202 55.049 313.793 54.9449 313.793C54.4593 313.793 45.4753 299.163 42.9778 294.263L42.2146 292.769L43.6715 294.089C44.4346 294.784 45.2324 295.375 45.4059 295.375C45.5793 295.375 45.7181 293.186 45.7528 290.51C45.7528 285.749 46.2384 281.684 47.3831 276.68C48.1115 273.448 48.3543 273.656 47.7993 276.992C47.3137 279.842 47.1749 294.437 47.6259 294.889C48.0768 295.375 51.5803 293.325 52.9331 291.831C53.6268 291.031 54.5981 289.537 55.1184 288.46C55.9509 286.653 56.0203 286.201 55.9856 281.649C55.9856 276.888 55.9509 276.68 54.5634 272.579C53.0718 268.201 50.8518 263.405 50.3315 263.405C49.7418 263.405 45.5793 266.672 43.6368 268.687C39.5784 272.892 37.8093 276.575 37.8093 280.85C37.7746 283.317 37.7746 283.352 37.2543 282.413C36.0056 280.12 29.8312 264.065 29.8312 263.127C29.8312 263.023 30.3515 263.44 31.0106 264.065L32.1899 265.212L32.4328 263.544C33.1265 258.158 35.5199 249.748 37.1849 246.725C37.5318 246.065 37.7399 245.822 37.6359 246.204C36.3524 250.131 34.6528 258.332 34.1671 263.023L33.959 265.247L35.1037 265.004C39.6131 264.1 43.2553 260.069 44.3653 254.787C44.8856 252.216 44.8509 247.107 44.2265 243.667C43.7756 240.991 42.4574 235.779 42.0759 235.188C41.8678 234.806 37.3237 237.169 34.8609 238.906C30.4556 242.034 27.7846 245.787 26.9174 249.992L26.4665 252.111L25.3912 247.594C24.4893 243.806 22.1999 232.234 22.1999 231.505C22.1999 231.366 22.6162 231.887 23.1018 232.582C23.5874 233.312 24.0384 233.868 24.1078 233.798C24.1771 233.729 24.6281 232.443 25.1484 230.914C26.2931 227.439 29.0334 221.601 31.0799 218.3C31.9471 216.944 32.7103 215.798 32.7796 215.798C32.849 215.798 32.0859 217.57 31.0453 219.69C29.3109 223.373 26.7093 230.497 26.189 233.138L25.9462 234.319L27.7846 234.111C32.9531 233.485 36.6299 229.663 38.3643 223.095C39.0234 220.593 39.2315 212.323 38.7459 208.743C38.399 206.38 38.3296 206.346 34.4446 207.736C28.0621 209.994 23.3099 213.817 21.7837 217.952L20.9859 220.141L20.7431 218.23C20.639 217.188 20.4309 212.705 20.2921 208.326C20.1187 201.064 20.1187 200.438 20.6043 201.446C20.8818 202.071 21.194 202.593 21.2981 202.593C21.4021 202.593 21.9918 201.62 22.5815 200.403C24.1771 197.276 27.1603 192.724 29.6924 189.7C32.7796 185.982 33.3693 185.635 31.0453 188.866C28.6518 192.202 26.9868 195.052 24.7668 199.569C22.7896 203.531 22.8937 203.774 26.1196 203.496C29.9006 203.114 33.2653 200.786 35.4853 196.998C37.4971 193.558 39.1621 186.121 39.1968 180.561V178.546L37.2196 178.789C30.1087 179.658 23.3793 183.272 21.5062 187.129C21.0899 187.998 20.6737 188.693 20.6043 188.693C20.3268 188.693 21.9571 173.75 22.5121 171.318L22.7896 170.101L23.0324 171.213C23.1712 171.839 23.414 172.36 23.5181 172.36C23.6568 172.36 24.4546 171.283 25.3218 169.997C26.1543 168.711 28.7212 165.792 31.0453 163.464C35.5893 158.877 38.5031 156.757 34.4793 160.927C30.2128 165.41 24.6281 172.812 25.1484 173.333C25.2871 173.472 26.8134 173.576 28.5478 173.576C31.1493 173.576 32.0165 173.437 33.3346 172.777C37.844 170.553 41.5209 164.368 43.3246 155.958C43.7409 154.082 44.0531 152.414 44.0531 152.205C44.0531 151.684 38.6418 151.788 35.4853 152.379C31.8431 153.074 28.1662 154.916 26.3971 156.966C25.5993 157.835 24.9749 158.425 24.9749 158.252C24.9749 157.8 27.5418 148.07 28.5131 144.803C29.2762 142.232 29.8312 141.398 29.8312 142.823C29.8312 143.691 30.2474 143.726 30.7678 142.857C31.5309 141.606 37.2543 136.846 40.5843 134.691C44.2612 132.259 45.4406 131.598 43.8796 132.815C38.6418 136.88 31.5656 143.587 31.5656 144.456C31.5656 145.151 33.8549 145.776 36.4218 145.776C38.4684 145.776 39.4049 145.603 40.7578 144.908C44.0878 143.309 47.1056 139.799 49.6724 134.656C50.9212 132.224 52.829 127.185 52.6209 126.977C52.2046 126.56 46.7934 126.073 44.0531 126.247C40.2374 126.455 37.5318 127.324 35.2078 129.131C34.3406 129.791 33.6468 130.243 33.6468 130.208C33.6468 129.618 39.0234 117.386 39.7865 116.239C40.2374 115.579 40.2374 115.579 40.2374 116.378C40.2374 117.177 40.2374 117.177 41.5556 116.135C44.2612 114.05 47.3137 112.138 51.0253 110.297C53.1412 109.254 54.9449 108.42 55.0143 108.49C55.049 108.559 53.9043 109.324 52.4474 110.158C49.4643 111.895 41.6249 117.698 41.6249 118.15C41.6249 118.289 42.3534 118.81 43.2899 119.262C45.7181 120.444 49.7765 120.374 52.274 119.088C54.7021 117.837 58.4831 114.223 60.6337 111.096C62.2987 108.663 64.6921 104.285 64.4493 104.076C64.3799 104.007 63.1659 103.625 61.7437 103.208C56.3671 101.679 49.8459 101.991 47.1403 103.937C46.5853 104.32 46.1343 104.528 46.1343 104.389C46.1343 104.007 48.5624 99.9411 51.4762 95.3889C53.0718 92.8869 53.9737 91.8096 54.0431 92.1919C54.1124 92.5394 54.2859 92.7826 54.3899 92.7131C54.5287 92.6436 56.0896 91.8444 57.8934 90.9409C60.8418 89.4119 69.2709 86.2844 69.5484 86.5971C69.6178 86.6666 67.9528 87.4659 65.8021 88.3694C62.7149 89.6551 55.9509 93.2691 55.1878 94.0336C54.8756 94.3464 56.0203 95.2499 57.7546 96.0839C59.2115 96.7441 60.1828 96.9526 62.0212 96.9526C64.1718 96.9526 64.7615 96.7789 67.3284 95.4931C69.6178 94.3464 70.8665 93.4081 73.1906 91.0799C74.8209 89.4466 76.7981 87.1184 77.6306 85.9021L79.1568 83.7129L76.9368 82.7399C73.1212 81.0024 70.8665 80.4811 67.2937 80.4811C65.0043 80.4811 63.6168 80.6549 62.7149 81.0371C61.9865 81.3846 61.3968 81.5584 61.3968 81.4889C61.3968 81.2456 70.034 70.9596 70.4156 70.7164C70.6237 70.5774 70.6584 70.7511 70.5196 71.0986C70.3462 71.5851 70.4156 71.6546 70.9706 71.4114C74.9249 69.7781 80.0587 68.3534 84.1171 67.7974C87.1003 67.3804 87.4818 67.5541 84.7762 68.1101C80.8218 68.9441 71.4562 72.3496 71.4562 72.9751C71.4562 73.1141 72.0806 73.8091 72.8437 74.4694C77.5959 78.8131 85.4353 76.6239 93.1012 68.8399L95.8415 66.0946L93.795 64.7741C92.685 64.0444 90.569 62.9671 89.1468 62.4111C86.8228 61.4729 86.129 61.3339 82.9378 61.3339H79.3649L82.244 58.5886C86.7534 54.3491 89.1468 52.3684 89.1468 52.8201C89.1468 53.0981 89.4243 53.1676 89.9446 53.0286C92.7196 52.2294 96.5006 51.7081 100.247 51.6039C103.889 51.4996 104.201 51.4996 102.189 51.7776C99.449 52.1251 93.795 53.3066 91.2628 54.0711L89.459 54.5924L90.2221 55.6696C91.2628 57.1291 93.7256 58.6234 95.9456 59.1099C100.073 60.0481 106.664 57.3724 112.63 52.3684L114.122 51.1521L112.838 50.0054C109.196 46.8084 104.826 44.7929 101.392 44.7234C100.177 44.6886 99.2062 44.5844 99.2062 44.4801C99.2062 44.3759 101.357 42.8469 103.924 41.0399L108.641 37.7734L113.636 37.5996C116.377 37.5301 119.984 37.5649 121.649 37.7386L124.702 38.0166L119.498 38.2599C114.503 38.5031 110.063 39.0244 109.682 39.4414C109.3 39.8236 111.694 42.6036 113.255 43.6114C114.746 44.5496 115.301 44.6539 118.076 44.7581C120.851 44.8624 121.614 44.7581 124.32 43.8199C127.095 42.8816 131.223 40.7966 133.027 39.4066C133.686 38.8854 133.616 38.7811 131.084 36.3834C128.066 33.4991 125.603 32.0396 122.482 31.2751L120.296 30.7191L125.326 28.1129L130.356 25.5066L135.177 25.9584C137.813 26.2016 141.143 26.7229 142.566 27.1051C143.988 27.4874 144.716 27.6959 144.127 27.5916C143.572 27.4874 140.311 27.3136 136.877 27.2094L130.702 27.0009L130.945 27.8349C131.223 28.8079 132.68 30.8234 133.72 31.6921C136.01 33.6729 140.415 34.1941 145.167 33.0474C147.907 32.3524 152.833 30.5106 153.457 29.8851C153.839 29.5029 153.111 28.3214 150.995 25.8194C149.122 23.6301 146.312 21.6494 143.918 20.8501L142.149 20.2246L145.722 18.8346C154.706 15.3596 158.903 14.3519 165.633 14.0739L169.448 13.9001L166.327 14.3866C162.719 14.9774 155.99 16.6454 152.452 17.8269L150.058 18.6609L151.619 20.1899C157.308 25.9236 165.876 24.7074 176.455 16.7149C177.947 15.5681 179.508 14.2824 179.959 13.7959L180.757 12.9619L178.155 11.1549C172.778 7.47137 167.471 5.66437 163.066 6.04662C159.216 6.39412 153.666 9.55637 151.584 12.6144C150.925 13.5874 150.232 14.0391 148.705 14.5604L146.693 15.2554L147.457 14.2129C148.983 12.0236 150.197 7.12387 150.197 2.88437C150.197 1.70287 150.093 0.660368 149.954 0.590868C149.781 0.486618 148.116 0.938368 146.208 1.52912ZM25.5646 117.177C25.4606 117.455 25.3565 117.351 25.3565 116.969C25.3218 116.586 25.4259 116.378 25.5299 116.517C25.634 116.621 25.6687 116.934 25.5646 117.177Z" fill="white"/>
<path d="M164.245 369.219C163.933 371.547 164.28 376.273 165.008 379.818C166.292 386.351 169.344 390.694 174.374 393.231C175.866 393.961 177.149 394.656 177.253 394.795C177.565 395.142 181.971 395.803 183.878 395.803C185.821 395.803 189.116 395.142 190.192 394.552C190.712 394.239 190.365 393.926 187.937 392.223C184.26 389.721 178.987 384.961 175.97 381.381C172.015 376.725 171.807 376.134 175.38 379.713C179.161 383.501 183.74 387.185 188.527 390.312C192.273 392.745 192.342 392.71 192.342 387.602C192.342 384.3 192.273 384.022 191.059 381.486C188.006 375.3 180.479 370.748 168.928 368.142C166.916 367.69 165.112 367.308 164.87 367.308C164.627 367.308 164.384 368.107 164.245 369.219Z" fill="white"/>
<path d="M147.595 386.593C150.023 387.775 165.668 392.605 166.014 392.258C166.084 392.188 164.558 391.667 162.58 391.111C160.638 390.59 156.545 389.304 153.492 388.261C147.491 386.211 145.965 385.794 147.595 386.593Z" fill="white"/>
<path d="M163.031 392.675C157.585 393.057 153.735 394.795 148.497 399.278C145.687 401.71 140.033 408.208 140.311 408.66C140.623 409.181 149.295 412.413 152.278 413.108C163.482 415.819 172.362 414.602 177.253 409.703C179.057 407.896 180.41 404.977 180.618 402.37L180.826 400.216L179.82 400.424C179.265 400.563 175.935 401.293 172.397 402.058C168.859 402.857 164.176 403.865 161.991 404.351C159.805 404.803 157.447 405.359 156.787 405.533C155.539 405.88 154.498 405.984 154.741 405.741C154.984 405.463 171.772 400.39 176.143 399.243C180.236 398.166 180.375 398.096 179.785 397.505C178.259 396.011 174.131 394.065 170.524 393.231C168.512 392.745 166.812 392.362 166.777 392.397C166.708 392.397 165.043 392.536 163.031 392.675Z" fill="white"/>
<path d="M263.625 395.212C261.509 395.559 254.398 398.895 254.572 399.451C254.641 399.625 257.381 400.668 260.642 401.745C263.903 402.822 268.759 404.525 271.43 405.533C274.101 406.506 276.945 407.583 277.778 407.861C280.31 408.764 279.096 408.764 276.078 407.826C274.482 407.374 270.112 406.158 266.4 405.185C260.642 403.656 258.11 402.961 254.19 401.849C252.733 401.432 253.982 407.826 255.786 410.224C258.075 413.212 260.503 414.776 264.839 416.027C268.689 417.104 276.39 417.104 281.524 416.027C284.888 415.297 289.849 413.803 292.52 412.656L293.803 412.135L292.45 410.12C287.317 402.579 279.893 396.602 274.378 395.49C271.811 395.003 265.984 394.83 263.625 395.212Z" fill="white"/>
</g>
<defs>
<clipPath id="clip0_81_15">
<rect width="444" height="417" fill="white"/>
</clipPath>
</defs>
</svg>
